<svg width="847" height="94" viewBox="0 0 847 94" fill="none" xmlns="http://www.w3.org/2000/svg">
<path d="M22.3465 88.4798L22.5865 86.9198C22.8265 85.7198 23.3065 85.3598 24.5065 85.2398L31.9465 84.3998C35.5465 84.0398 36.2665 80.4398 36.2665 63.8798V16.2398C36.2665 10.3598 33.8665 9.39977 20.5465 9.39977C8.42647 9.39977 6.74647 16.9598 4.82647 22.5998C4.34647 24.0398 3.86647 24.9998 2.42647 24.9998H1.58647C0.0264658 24.9998 -0.213534 23.7998 0.146466 20.7998L1.94647 4.95977C2.30647 1.71977 2.78647 0.759766 4.34647 0.759766H4.94647C6.02647 0.759766 6.50647 1.35977 7.34647 2.43977C8.66647 4.11977 10.9465 4.23977 13.4665 4.35977C38.4265 5.79977 44.0665 5.79977 70.5865 4.23977C73.1065 4.11977 74.6665 3.75977 75.8665 2.43977C76.8265 1.35977 77.4265 0.759766 78.6265 0.759766H79.2265C80.7865 0.759766 81.2665 1.71977 80.9065 4.95977L78.9865 20.7998C78.6265 23.7998 78.5065 24.9998 76.9465 24.9998H76.1065C74.6665 24.9998 74.5465 24.0398 74.1865 22.5998C72.7465 16.9598 73.9465 9.39977 61.8265 9.39977C47.3065 9.39977 45.8665 10.3598 45.8665 16.2398V61.1198C45.8665 79.3598 46.3465 84.2798 51.1465 84.6398L58.2265 85.2398C59.3065 85.3598 60.0265 86.3198 60.0265 87.3998V88.4798C60.0265 89.5598 59.3065 90.2798 58.2265 90.2798H24.1465C23.0665 90.2798 22.2265 89.5598 22.3465 88.4798Z" fill="black"/>
<path d="M83.6172 88.4799L83.8572 87.1599C84.0972 85.9599 84.5772 85.5999 85.7772 85.4799L92.0172 84.6399C95.6172 84.1599 96.3372 81.8799 96.3372 67.4799V29.4399C96.3372 13.3599 95.8572 9.87988 91.0572 9.27988L86.3772 8.67988C85.2972 8.55988 84.5772 7.59988 84.5772 6.51988V5.67988C84.5772 4.59988 85.2972 3.87988 86.3772 3.87988H116.977C118.057 3.87988 119.017 4.59988 118.777 5.67988L118.537 6.99988C118.297 8.19988 117.817 8.55988 116.617 8.67988L110.257 9.51988C106.657 9.99988 105.937 12.2799 105.937 26.6799V41.5599C105.937 42.6399 106.657 43.3599 107.737 43.3599H149.257C150.337 43.3599 151.057 42.6399 151.057 41.5599V29.4399C151.057 13.3599 150.577 9.75988 145.777 9.27988L139.897 8.67988C138.937 8.55988 138.217 7.59988 138.217 6.51988V5.67988C138.217 4.59988 138.937 3.87988 139.897 3.87988H170.497C171.577 3.87988 172.537 4.59988 172.297 5.67988L172.057 6.99988C171.817 8.19988 171.337 8.43988 170.137 8.67988L164.977 9.51988C161.377 10.1199 160.657 12.2799 160.657 26.6799V64.7199C160.657 80.7999 161.137 84.3999 165.937 84.8799L171.817 85.4799C172.897 85.5999 173.617 86.5599 173.617 87.6399V88.4799C173.617 89.5599 172.897 90.2799 171.817 90.2799H140.137C139.057 90.2799 138.097 89.5599 138.337 88.4799L138.577 87.1599C138.817 85.9599 139.297 85.5999 140.497 85.4799L146.737 84.6399C150.337 84.1599 151.057 81.8799 151.057 67.4799V50.1999C151.057 49.1199 150.337 48.3999 149.257 48.3999H107.737C106.657 48.3999 105.937 49.1199 105.937 50.1999V64.7199C105.937 80.7999 106.417 84.3999 111.217 84.8799L117.097 85.4799C118.177 85.5999 118.897 86.5599 118.897 87.6399V88.4799C118.897 89.5599 118.177 90.2799 117.097 90.2799H85.4172C84.3372 90.2799 83.3772 89.5599 83.6172 88.4799Z" fill="black"/>
<path d="M177.897 90.2796C176.937 90.2796 176.217 89.5597 176.217 88.4797V87.6396C176.217 86.5596 176.937 85.8397 178.017 85.7197L183.897 84.8797C188.697 84.1597 189.177 80.7996 189.177 64.7196V29.4396C189.177 13.3596 188.697 9.99965 183.897 9.27965L178.017 8.43965C176.937 8.31965 176.217 7.59965 176.217 6.51965V5.67965C176.217 4.59965 176.937 3.87965 177.897 3.87965C183.657 3.87965 189.897 5.67965 233.577 3.63965C234.537 3.63965 235.377 3.99965 235.497 5.31965L236.337 20.9196C236.457 23.7996 235.737 24.3996 234.177 24.3996H233.817C232.377 24.3996 231.897 23.7996 231.417 22.4796C227.457 12.1596 225.177 7.71965 207.897 8.91965C201.417 9.39965 198.777 10.3596 198.777 16.2396V39.1596C198.777 41.7996 200.697 41.7996 206.577 41.7996H208.617C218.217 41.7996 218.937 39.5196 219.657 37.1196L220.497 34.4796C220.857 33.2796 221.217 32.6796 222.417 32.5596L224.457 32.3196C225.537 32.1996 226.137 33.0396 226.017 34.1196L224.097 55.5996C223.977 56.6796 223.137 57.3996 222.057 57.3996H221.097C220.017 57.3996 219.537 56.7996 219.297 55.7196C219.057 51.3996 220.017 46.5996 206.937 46.5996H206.577C200.697 46.5996 198.777 47.5596 198.777 49.5996V76.7197C198.777 82.5996 201.417 84.8797 207.897 85.2397C230.457 86.4397 232.977 77.3196 235.017 71.6796C235.497 70.3596 235.977 69.7597 237.417 69.7597H237.777C239.337 69.7597 240.297 70.3597 239.937 73.2397L237.897 88.8397C237.777 90.1597 236.937 90.5197 235.977 90.5197C192.297 88.4797 183.657 90.2796 177.897 90.2796Z" fill="black"/>
<path d="M395.616 90.2799C394.656 90.2799 393.936 89.5599 393.936 88.4799V87.1599C393.936 86.0799 394.656 85.3599 395.736 85.2399L401.616 84.3999C406.416 83.6799 406.896 80.3199 406.896 64.2399V29.6799C406.896 13.5999 406.416 9.99988 401.616 9.51988L395.736 8.91988C394.656 8.79988 393.936 7.83988 393.936 6.75988V5.67988C393.936 4.59988 394.656 3.87988 395.736 3.87988H427.896C428.976 3.87988 429.816 4.59988 429.696 5.67988L429.456 7.23988C429.216 8.43988 428.736 8.79988 427.536 8.91988L420.816 9.75988C417.216 10.2399 416.496 12.5199 416.496 26.9199V76.2399C416.496 81.8799 419.136 84.3999 425.616 84.7599C445.776 85.9599 448.536 76.8399 450.576 71.1999C451.056 69.8799 451.776 69.1599 453.216 69.1599H453.576C455.136 69.1599 455.856 69.8799 455.496 72.7599L453.456 89.0799C453.336 90.3999 452.496 90.7599 451.536 90.7599C407.616 88.7199 401.376 90.2799 395.616 90.2799Z" fill="black"/>
<path d="M462.336 88.4799L462.576 87.1599C462.816 85.9599 463.296 85.5999 464.496 85.4799L470.736 84.6399C474.336 84.1599 475.056 81.8799 475.056 67.4799V54.0399C475.056 52.9599 474.816 52.1199 474.216 51.0399L454.896 19.2399C449.376 10.2399 447.096 9.75988 443.496 9.27988L440.976 8.91988C439.776 8.79988 439.296 8.43988 439.056 7.23988L438.816 5.67988C438.696 4.59988 439.536 3.87988 440.616 3.87988H470.136C471.216 3.87988 471.936 4.59988 471.936 5.67988V7.47988C471.936 8.55988 470.976 9.39988 469.536 9.39988C464.736 9.39988 460.656 10.1199 463.536 14.7999L481.296 43.8399C481.776 44.6799 482.616 44.6799 482.976 43.8399L495.696 18.7599C500.256 9.75988 497.136 9.15988 491.136 9.15988C489.696 9.15988 488.736 8.31988 488.736 7.23988V5.67988C488.736 4.59988 489.456 3.87988 490.536 3.87988H518.736C519.816 3.87988 520.656 4.59988 520.536 5.67988L520.296 7.47988C520.176 8.67988 519.576 9.03988 518.376 9.15988L515.856 9.51988C512.496 9.99988 508.536 10.9599 505.656 15.8799L485.496 49.9599C484.896 51.0399 484.656 51.8799 484.656 52.9599V64.7199C484.656 80.7999 485.136 84.3999 489.936 84.8799L495.816 85.4799C496.896 85.5999 497.616 86.5599 497.616 87.6399V88.4799C497.616 89.5599 496.896 90.2799 495.816 90.2799H464.136C463.056 90.2799 462.096 89.5599 462.336 88.4799Z" fill="black"/>
<path d="M509.977 48.2798C509.977 21.6398 530.737 2.19977 555.337 2.19977C566.857 2.19977 572.257 5.07977 576.457 5.07977C578.257 5.07977 578.977 4.23977 579.217 3.15977C579.817 1.35977 580.417 0.759766 581.857 0.759766H582.697C584.257 0.759766 584.737 1.71977 584.377 4.95977L581.857 26.3198C581.617 27.9998 580.537 28.5998 579.337 28.5998C577.657 28.5998 576.937 27.8798 576.697 26.3198C575.017 16.9598 567.577 6.99977 553.897 6.99977C535.537 6.99977 520.897 24.7598 521.737 48.2798C522.577 71.6798 538.897 83.0798 554.857 82.9598C569.017 82.8398 577.297 76.4798 582.457 71.1998C583.297 70.3598 584.257 70.1198 585.217 70.7198C586.177 71.3198 586.417 72.2798 585.697 73.4798C578.737 84.7598 565.417 91.9598 550.777 91.9598C526.177 91.9598 509.977 74.6798 509.977 48.2798Z" fill="black"/>
<path d="M694.647 85.4796L688.767 84.8796C683.967 84.3996 683.487 80.7996 683.487 64.7196V26.6796C683.487 12.2796 684.207 9.99957 687.807 9.51957L694.047 8.67957C695.247 8.55957 695.727 8.19956 695.967 6.99956L696.207 5.67957C696.447 4.59957 695.487 3.87957 694.407 3.87957H662.727C661.737 3.87957 660.927 4.68957 660.927 5.67957V6.51957C660.927 7.59957 661.647 8.55957 662.727 8.67957L668.607 9.27957C673.407 9.75957 673.887 13.3596 673.887 29.4396V67.4796C673.887 81.8796 673.167 84.1596 669.567 84.6396L668.427 84.7896C665.637 85.1696 662.787 85.0796 660.057 84.3796C658.897 84.0796 657.737 83.6696 656.607 83.0796C649.167 79.2396 644.127 73.4796 636.807 64.3596L626.967 52.2396C626.367 51.5196 626.607 50.7996 627.687 50.6796C646.287 49.2396 656.007 40.2396 656.007 27.3996C656.007 12.2796 644.967 3.39957 628.167 3.75957L618.447 3.99957C598.887 4.47957 594.447 3.87957 590.127 3.87957C589.167 3.87957 588.447 4.59957 588.447 5.67957V6.51957C588.447 7.59957 589.167 8.31957 590.247 8.43957L596.127 9.27957C600.927 9.99957 601.407 13.3596 601.407 29.4396V67.4796C601.407 81.8796 600.687 84.1596 597.087 84.6396L590.847 85.4796C589.647 85.5996 589.167 85.9596 588.927 87.1596L588.687 88.4796C588.447 89.5596 589.407 90.2796 590.487 90.2796H622.167C623.157 90.2796 623.967 89.4696 623.967 88.4796V87.6396C623.967 86.5596 623.247 85.5996 622.167 85.4796L616.287 84.8796C611.487 84.3996 611.007 80.7996 611.007 64.7196V51.3996C611.007 50.4396 612.087 49.3596 613.167 50.7996L627.447 69.3996C636.927 81.7596 643.047 90.2796 650.607 90.2796H694.647C695.637 90.2796 696.447 89.4696 696.447 88.4796V87.6396C696.447 86.5596 695.727 85.5996 694.647 85.4796ZM617.607 45.9996C612.447 45.2796 611.007 44.6796 611.007 41.5596V15.8796C611.007 9.99957 613.647 8.79957 620.127 8.31957C637.887 6.51957 644.847 16.5996 644.847 27.3996C644.847 38.1996 636.687 48.5196 617.607 45.9996Z" fill="black"/>
<path d="M700.056 89.3198L701.376 70.3598C701.496 68.6798 702.696 68.0798 703.896 68.0798C705.576 68.0798 706.056 68.7998 706.536 70.3598C709.416 80.5598 714.696 87.1598 725.736 87.1598C734.016 87.1598 741.336 81.5198 741.336 71.7998C741.336 65.1998 736.656 59.3198 729.456 55.1198L717.576 48.2798C707.376 42.3998 701.736 34.1198 701.736 25.2398C701.736 12.1598 712.296 2.19977 727.176 2.19977C733.656 2.19977 740.496 5.07977 742.536 5.07977C743.856 5.07977 744.576 4.23977 744.816 3.15977C745.416 1.35977 745.536 0.759766 746.976 0.759766H747.816C749.376 0.759766 750.216 1.71977 749.976 4.95977L748.656 23.9198C748.536 25.5998 747.336 26.1998 746.136 26.1998C744.456 26.1998 743.856 25.4798 743.496 23.9198C740.616 12.7598 735.936 6.75977 726.456 6.75977C718.176 6.75977 711.096 12.2798 711.096 21.0398C711.096 27.2798 713.736 33.2798 723.216 38.5598L735.696 45.5198C745.776 51.1598 752.136 57.2798 752.136 68.9198C752.136 86.4398 737.496 91.9598 724.656 91.9598C715.176 91.9598 710.496 89.0798 707.856 89.0798C706.416 89.0798 705.576 89.9198 705.216 91.1198C704.736 92.7998 704.496 93.5198 703.056 93.5198H702.216C700.656 93.5198 699.816 92.5598 700.056 89.3198Z" fill="black"/>
<path d="M754.767 88.4799L755.007 87.1599C755.247 85.9599 755.727 85.5999 756.927 85.4799L763.167 84.6399C766.767 84.1599 767.487 81.8799 767.487 67.4799V29.4399C767.487 13.3599 767.007 9.75988 762.207 9.27988L756.327 8.67988C755.247 8.55988 754.527 7.59988 754.527 6.51988V5.67988C754.527 4.59988 755.247 3.87988 756.327 3.87988H788.007C789.087 3.87988 790.047 4.59988 789.807 5.67988L789.567 6.99988C789.327 8.19988 788.847 8.55988 787.647 8.67988L781.407 9.51988C777.807 9.99988 777.087 12.2799 777.087 26.6799V64.7199C777.087 80.7999 777.567 84.3999 782.367 84.8799L788.247 85.4799C789.327 85.5999 790.047 86.5599 790.047 87.6399V88.4799C790.047 89.5599 789.327 90.2799 788.247 90.2799H756.567C755.487 90.2799 754.527 89.5599 754.767 88.4799Z" fill="black"/>
<path d="M794.847 89.3198L796.167 70.3598C796.287 68.6798 797.487 68.0798 798.687 68.0798C800.367 68.0798 800.847 68.7998 801.327 70.3598C804.207 80.5598 809.487 87.1598 820.527 87.1598C828.807 87.1598 836.127 81.5198 836.127 71.7998C836.127 65.1998 831.447 59.3198 824.247 55.1198L812.367 48.2798C802.167 42.3998 796.527 34.1198 796.527 25.2398C796.527 12.1598 807.087 2.19977 821.967 2.19977C828.447 2.19977 835.287 5.07977 837.327 5.07977C838.647 5.07977 839.367 4.23977 839.607 3.15977C840.207 1.35977 840.327 0.759766 841.767 0.759766H842.607C844.167 0.759766 845.007 1.71977 844.767 4.95977L843.447 23.9198C843.327 25.5998 842.127 26.1998 840.927 26.1998C839.247 26.1998 838.647 25.4798 838.287 23.9198C835.407 12.7598 830.727 6.75977 821.247 6.75977C812.967 6.75977 805.887 12.2798 805.887 21.0398C805.887 27.2798 808.527 33.2798 818.007 38.5598L830.487 45.5198C840.567 51.1598 846.927 57.2798 846.927 68.9198C846.927 86.4398 832.287 91.9598 819.447 91.9598C809.967 91.9598 805.287 89.0798 802.647 89.0798C801.207 89.0798 800.367 89.9198 800.007 91.1198C799.527 92.7998 799.287 93.5198 797.847 93.5198H797.007C795.447 93.5198 794.607 92.5598 794.847 89.3198Z" fill="black"/>
<path d="M352.777 2.2002C346.007 2.2002 339.807 3.4702 334.317 5.8002C336.097 6.9502 337.687 8.3002 339.077 9.8102C342.747 7.9902 346.867 7.0002 351.337 7.0002C369.697 7.0002 383.497 23.5602 384.337 47.0802C385.177 70.4802 372.577 87.1602 354.217 87.1602C335.857 87.1602 322.057 70.4802 321.217 47.0802C320.847 36.6602 323.117 27.6202 327.347 20.7602C326.177 17.6202 324.207 15.4702 321.967 14.0202C313.917 21.9402 309.217 33.4002 309.217 47.0802C309.217 73.4802 326.977 91.9602 352.777 91.9602C378.577 91.9602 396.337 73.4802 396.337 47.0802C396.337 20.6802 378.577 2.2002 352.777 2.2002Z" fill="black"/>
<path d="M314.656 3.75957L304.936 3.99957C285.376 4.47957 280.936 3.87957 276.616 3.87957C275.656 3.87957 274.936 4.59957 274.936 5.67957V6.51957C274.936 7.59957 275.656 8.31957 276.736 8.43957L282.616 9.27957C287.416 9.99957 287.896 13.3596 287.896 29.4396V67.4796C287.896 81.8796 287.176 84.1596 283.576 84.6396L277.336 85.4796C276.136 85.5996 275.656 85.9596 275.416 87.1596L275.176 88.4796C274.936 89.5596 275.896 90.2796 276.976 90.2796H311.056C312.136 90.2796 312.856 89.5596 312.856 88.4796V87.6396C312.856 86.5596 312.136 85.5996 311.056 85.4796L302.776 84.8796C297.976 84.5196 297.496 80.7996 297.496 64.7196V54.3996C297.496 51.5196 298.576 51.0396 303.616 51.5196C304.606 51.5996 305.566 51.6596 306.526 51.6996C306.406 50.2196 306.346 48.7196 306.346 47.1896C305.616 47.1296 304.866 47.0596 304.106 46.9596C298.946 46.2396 297.506 45.6396 297.506 42.5196V15.8796C297.506 9.99957 300.146 8.79957 306.626 8.31957C324.386 6.51957 331.346 16.5996 331.346 27.3996C331.346 33.0996 329.066 38.9396 324.116 42.7996C324.066 44.1696 324.056 45.5596 324.116 46.9696C324.146 47.9396 324.216 48.8896 324.306 49.8296C336.386 46.1696 342.646 37.7096 342.646 27.3996C342.646 12.2796 331.486 3.39957 314.686 3.75957H314.656Z" fill="black"/>
</svg>
